
        <svg xmlns="http://www.w3.org/2000/svg" xmlns:xlink="http://www.w3.org/1999/xlink" version="1.1" width="3162.3603351955308" height="734.3028268468526" viewBox="0 0 3162.3603351955308 734.3028268468526">
			
			<g transform="scale(8.118016759776538) translate(10, 10)">
				<defs id="SvgjsDefs7624"/><g id="SvgjsG7625" featureKey="PG4fjM-0" transform="matrix(0.6304669596018928,0,0,0.6304669596018928,-3.3097843875891506,3.6742313409200174)" fill="#fff"><path xmlns="http://www.w3.org/2000/svg" d="M23.93,75.9a36.62,36.62,0,0,0,13.25,8.48H6a.76.76,0,0,1-.75-.75V75.78A.76.76,0,0,1,6,75H23.09Zm70.66,3.33-6.7-8a.38.38,0,0,0-.67.24V75l-39.64-.1a25,25,0,0,1-.53-49.81l-2.43-2.91a3,3,0,0,1,0-3.83l2.19-2.63a34.38,34.38,0,0,0,.77,68.56l39.64.07V88a.38.38,0,0,0,.67.24l6.7-8A.74.74,0,0,0,94.59,79.23ZM46.34,20.77l6.71,8.05a.37.37,0,0,0,.66-.24V25.27A25,25,0,0,1,67.53,67.7a25.24,25.24,0,0,1-7.18,5l15.25,0A34.38,34.38,0,0,0,53.71,15.84V12a.37.37,0,0,0-.66-.24l-6.71,8.05A.75.75,0,0,0,46.34,20.77ZM38.73,57.14a.87.87,0,0,0,0-.93,12.34,12.34,0,0,1-1.15-2.78.86.86,0,0,0-.69-.63l-1.84-.33a.88.88,0,0,1-.71-.86V48.39a.88.88,0,0,1,.71-.86l1.84-.33a.86.86,0,0,0,.69-.63,12.34,12.34,0,0,1,1.15-2.78.87.87,0,0,0,0-.93l-1.06-1.53a.86.86,0,0,1,.1-1.12L40,37.94a.85.85,0,0,1,1.11-.1l1.54,1.06a.87.87,0,0,0,.93.05,12.85,12.85,0,0,1,2.78-1.16A.86.86,0,0,0,47,37.1l.33-1.83a.87.87,0,0,1,.86-.72h3.21a.88.88,0,0,1,.87.72l.33,1.83a.85.85,0,0,0,.62.69A12.93,12.93,0,0,1,56,39,.85.85,0,0,0,57,38.9l1.54-1.06a.87.87,0,0,1,1.12.1l2.27,2.27a.88.88,0,0,1,.1,1.12l-1.06,1.53a.85.85,0,0,0,0,.93A12.85,12.85,0,0,1,62,46.57a.86.86,0,0,0,.68.63l1.84.33a.88.88,0,0,1,.72.86v3.22a.88.88,0,0,1-.72.86l-1.84.33a.86.86,0,0,0-.68.63,12.85,12.85,0,0,1-1.16,2.78.85.85,0,0,0,0,.93L62,58.67a.88.88,0,0,1-.1,1.12l-2.27,2.27a.87.87,0,0,1-1.12.1L57,61.1a.85.85,0,0,0-.92-.05,12.93,12.93,0,0,1-2.79,1.16.85.85,0,0,0-.62.69l-.33,1.83a.88.88,0,0,1-.87.72H48.22a.87.87,0,0,1-.86-.72L47,62.9a.86.86,0,0,0-.63-.69,13.34,13.34,0,0,1-2.78-1.15.85.85,0,0,0-.93,0l-1.54,1.06a.85.85,0,0,1-1.11-.1l-2.27-2.27a.86.86,0,0,1-.1-1.12ZM42.52,50a7.31,7.31,0,1,0,7.31-7.3A7.3,7.3,0,0,0,42.52,50Z"/></g><g id="SvgjsG7626" featureKey="jxYttZ-0" transform="matrix(2.362413929480484,0,0,2.362413929480484,71.68582668811788,-11.812069647402419)" fill="#fff"><path d="M10.146484 8.466797 l-5.371094 0 l0 3.203125 l4.638672 0 l0 2.548828 l-4.638672 0 l0 5.78125 l-2.949219 0 l0 -14.111328 l8.320313 0 l0 2.578125 z M12.275391 20 l0 -15 l2.841797 0 l0 15 l-2.841797 0 z M24.677735 9.960938 l2.8125 0 l0 10.039063 l-2.666016 0 l-0.068359 -1.210937 c-0.703125 0.888672 -1.816406 1.40625 -3.193359 1.40625 c-2.412109 0 -3.740234 -1.259766 -3.740234 -3.476562 l0 -6.757812 l2.822266 0 l0 6.152344 c0 1.328125 0.830078 1.816406 1.806641 1.816406 c1.162109 0 2.216797 -0.585937 2.226563 -2.431641 l0 -5.537109 z M29.023438 20 l4.121094 -5.029297 l-4.121094 -5.009766 l3.515625 0 l2.304688 3.164063 l2.324219 -3.164062 l3.486328 0 l-4.130859 5.019531 l4.130859 5.019531 l-3.486328 0 l-2.304687 -3.144531 l-2.314453 3.144531 l-3.525391 0 z M52.451172 20.195313 c-3.027344 0 -5.390625 -1.455078 -5.820312 -4.101562 l3.027344 -0.693359 c0.195313 1.582031 1.357422 2.402344 2.910156 2.402344 c1.191406 0 2.138672 -0.527344 2.128906 -1.71875 c-0.009766 -1.328125 -1.572266 -1.748047 -3.291016 -2.275391 c-2.070312 -0.644531 -4.287109 -1.40625 -4.287109 -4.003906 c0 -2.626953 2.148438 -4.111328 4.980469 -4.111328 c2.480469 0 4.980469 1.005859 5.546875 3.710938 l-2.832031 0.703125 c-0.263672 -1.40625 -1.210937 -2.021484 -2.539062 -2.021484 c-1.181641 0 -2.1875 0.488281 -2.1875 1.650391 c0 1.083984 1.386719 1.445313 2.988281 1.923828 c2.128906 0.644531 4.648438 1.464844 4.648438 4.277344 c0 2.998047 -2.509766 4.257813 -5.273437 4.257813 z M69.501954 14.833984 l-0.029297 0.673828 l-7.441406 0 c0.117188 1.669922 1.230469 2.470703 2.568359 2.470703 c1.005859 0 1.787109 -0.46875 2.167969 -1.357422 l2.578125 0.380859 c-0.664062 2.03125 -2.470703 3.193359 -4.726562 3.193359 c-3.242187 0 -5.361328 -1.914062 -5.361328 -5.214844 s2.177734 -5.234375 5.273438 -5.234375 c2.841797 0 4.960938 1.572266 4.970703 5.087891 z M64.550782 11.738281 c-1.279297 0 -2.167969 0.595703 -2.441406 1.933594 l4.609375 0 c-0.146484 -1.279297 -1.015625 -1.933594 -2.167969 -1.933594 z M76.181641 20.185547 c-3.154297 0 -5.380859 -2.099609 -5.380859 -5.214844 c0 -3.125 2.226563 -5.205078 5.380859 -5.205078 c2.539063 0 4.443359 1.318359 4.931641 3.691406 l-2.597656 0.283203 c-0.3125 -1.201172 -1.181641 -1.757812 -2.363281 -1.757812 c-1.513672 0 -2.539062 1.191406 -2.539062 2.988281 c0 1.787109 1.025391 2.988281 2.539063 2.988281 c1.181641 0 2.050781 -0.566406 2.363281 -1.757812 l2.597656 0.283203 c-0.488281 2.373047 -2.441406 3.701172 -4.931641 3.701172 z M89.765625 9.960938 l2.8125 0 l0 10.039063 l-2.666016 0 l-0.068359 -1.210937 c-0.703125 0.888672 -1.816406 1.40625 -3.193359 1.40625 c-2.412109 0 -3.740234 -1.259766 -3.740234 -3.476562 l0 -6.757812 l2.822266 0 l0 6.152344 c0 1.328125 0.830078 1.816406 1.806641 1.816406 c1.162109 0 2.216797 -0.585937 2.226563 -2.431641 l0 -5.537109 z M98.183594 11.552734 c0.507813 -0.888672 1.826172 -1.708984 3.28125 -1.708984 l0 2.509766 c-2.128906 0 -3.144531 0.625 -3.144531 2.753906 l0 4.892578 l-2.832031 0 l0 -10.039062 l2.695313 0 l0 1.591797 z M104.550781 8.457031 c-0.888672 0 -1.630859 -0.722656 -1.630859 -1.621094 c0 -0.888672 0.742188 -1.611328 1.630859 -1.611328 c0.869141 0 1.611328 0.722656 1.611328 1.611328 c0 0.898438 -0.742187 1.621094 -1.611328 1.621094 z M103.115234 20 l0 -10.039062 l2.832031 0 l0 10.039063 l-2.832031 0 z M112.597657 20 c-1.953125 0 -3.066406 -1.132812 -3.066406 -3.134766 l0 -4.746094 l-1.972656 0 l0 -2.158203 l0.634766 0 c1.064453 0 1.650391 -0.410156 1.650391 -1.914062 l0 -1.328125 l2.539063 0 l0 3.242188 l2.070313 0 l0 2.158203 l-2.070312 0 l0 4.443359 c0 0.898438 0.439453 1.298828 1.162109 1.298828 l0.908203 0 l0 2.138672 l-1.855469 0 z M123.203125 9.960938 l2.880859 0 l-6.191406 14.765625 l-2.851562 0 l2.294922 -5.136719 l-4.130859 -9.628906 l3.066406 0 l2.392578 6.601563 z"/></g><g id="SvgjsG7627" featureKey="sloganFeature-0" transform="matrix(0.6766384333513545,0,0,0.6766384333513545,75.5771009791554,53.61680783324323)" fill="#fff"><path d="M4.990234 20.195313 c-2.255859 0 -4.003906 -0.888672 -4.365234 -2.792969 l2.353516 -0.664062 c0.302734 1.074219 1.064453 1.494141 2.011719 1.494141 c0.693359 0 1.445313 -0.214844 1.425781 -1.005859 c-0.009766 -1.044922 -1.591797 -1.132812 -3.183594 -1.699219 c-1.201172 -0.419922 -2.353516 -1.064453 -2.353516 -2.753906 c0 -2.060547 1.708984 -3.007812 3.935547 -3.007812 c1.953125 0 3.583984 0.742188 3.974609 2.65625 l-2.177734 0.488281 c-0.302734 -0.9375 -0.966797 -1.269531 -1.787109 -1.269531 c-0.742187 0 -1.376953 0.263672 -1.376953 0.888672 c0 0.791016 1.162109 0.947266 2.421875 1.289063 c1.552734 0.419922 3.251953 1.09375 3.251953 3.242188 c0 2.304688 -1.962891 3.134766 -4.130859 3.134766 z M20.585938 14.833984 l-0.029297 0.673828 l-7.441406 0 c0.117188 1.669922 1.230469 2.470703 2.568359 2.470703 c1.005859 0 1.787109 -0.46875 2.167969 -1.357422 l2.578125 0.380859 c-0.664062 2.03125 -2.470703 3.193359 -4.726562 3.193359 c-3.242187 0 -5.361328 -1.914062 -5.361328 -5.214844 s2.177734 -5.234375 5.273438 -5.234375 c2.841797 0 4.960938 1.572266 4.970703 5.087891 z M15.634766 11.738281 c-1.279297 0 -2.167969 0.595703 -2.441406 1.933594 l4.609375 0 c-0.146484 -1.279297 -1.015625 -1.933594 -2.167969 -1.933594 z M27.265625 20.185547 c-3.154297 0 -5.380859 -2.099609 -5.380859 -5.214844 c0 -3.125 2.226563 -5.205078 5.380859 -5.205078 c2.539063 0 4.443359 1.318359 4.931641 3.691406 l-2.597656 0.283203 c-0.3125 -1.201172 -1.181641 -1.757812 -2.363281 -1.757812 c-1.513672 0 -2.539062 1.191406 -2.539062 2.988281 c0 1.787109 1.025391 2.988281 2.539063 2.988281 c1.181641 0 2.050781 -0.566406 2.363281 -1.757812 l2.597656 0.283203 c-0.488281 2.373047 -2.441406 3.701172 -4.931641 3.701172 z M40.84961 9.960938 l2.8125 0 l0 10.039063 l-2.666016 0 l-0.068359 -1.210937 c-0.703125 0.888672 -1.816406 1.40625 -3.193359 1.40625 c-2.412109 0 -3.740234 -1.259766 -3.740234 -3.476562 l0 -6.757812 l2.822266 0 l0 6.152344 c0 1.328125 0.830078 1.816406 1.806641 1.816406 c1.162109 0 2.216797 -0.585937 2.226563 -2.431641 l0 -5.537109 z M49.267579 11.552734 c0.507813 -0.888672 1.826172 -1.708984 3.28125 -1.708984 l0 2.509766 c-2.128906 0 -3.144531 0.625 -3.144531 2.753906 l0 4.892578 l-2.832031 0 l0 -10.039062 l2.695313 0 l0 1.591797 z M55.634766 8.457031 c-0.888672 0 -1.630859 -0.722656 -1.630859 -1.621094 c0 -0.888672 0.742188 -1.611328 1.630859 -1.611328 c0.869141 0 1.611328 0.722656 1.611328 1.611328 c0 0.898438 -0.742187 1.621094 -1.611328 1.621094 z M54.199219 20 l0 -10.039062 l2.832031 0 l0 10.039063 l-2.832031 0 z M63.681641 20 c-1.953125 0 -3.066406 -1.132812 -3.066406 -3.134766 l0 -4.746094 l-1.972656 0 l0 -2.158203 l0.634766 0 c1.064453 0 1.650391 -0.410156 1.650391 -1.914062 l0 -1.328125 l2.539063 0 l0 3.242188 l2.070313 0 l0 2.158203 l-2.070312 0 l0 4.443359 c0 0.898438 0.439453 1.298828 1.162109 1.298828 l0.908203 0 l0 2.138672 l-1.855469 0 z M74.28711 9.960938 l2.880859 0 l-6.191406 14.765625 l-2.851562 0 l2.294922 -5.136719 l-4.130859 -9.628906 l3.066406 0 l2.392578 6.601563 z M92.080078 17.275391 c0 1.230469 0.117188 2.011719 0.244141 2.451172 l0 0.273438 l-2.626953 0 l-0.224609 -1.09375 c-0.751953 0.908203 -2.050781 1.289063 -3.222656 1.289063 c-1.582031 0 -3.125 -0.703125 -3.125 -2.792969 c0 -2.080078 1.552734 -2.783203 3.652344 -3.242187 l1.650391 -0.371094 c0.712891 -0.166016 0.966797 -0.410156 0.966797 -0.820312 c0 -0.986328 -0.898437 -1.259766 -1.689453 -1.259766 c-1.015625 0 -1.787109 0.400391 -1.962891 1.533203 l-2.490234 -0.449219 c0.419922 -2.080078 1.943359 -3.027344 4.609375 -3.027344 c2.011719 0 4.21875 0.595703 4.21875 3.623047 l0 3.886719 z M87.128906 18.291016 c1.337891 0 2.412109 -0.888672 2.412109 -2.880859 l-2.382812 0.673828 c-0.78125 0.185547 -1.347656 0.458984 -1.347656 1.132813 c0 0.722656 0.595703 1.074219 1.318359 1.074219 z M98.554688 20 c-1.953125 0 -3.066406 -1.132812 -3.066406 -3.134766 l0 -4.746094 l-1.972656 0 l0 -2.158203 l0.634766 0 c1.064453 0 1.650391 -0.410156 1.650391 -1.914062 l0 -1.328125 l2.539063 0 l0 3.242188 l2.070313 0 l0 2.158203 l-2.070312 0 l0 4.443359 c0 0.898438 0.439453 1.298828 1.162109 1.298828 l0.908203 0 l0 2.138672 l-1.855469 0 z M119.677734 9.765625 c2.148438 0 3.535156 1.09375 3.535156 3.154297 l0 7.080078 l-2.8125 0 l0 -6.279297 c0 -1.181641 -0.742187 -1.699219 -1.582031 -1.699219 c-1.005859 0 -1.894531 0.576172 -1.894531 2.314453 l0 5.664063 l-2.841797 0 l0 -6.25 c0 -1.201172 -0.722656 -1.728516 -1.611328 -1.728516 c-0.976562 0 -1.884766 0.576172 -1.884766 2.460938 l0 5.517578 l-2.802734 0 l0 -10.039062 l2.802734 0 l0 1.181641 c0.664063 -0.888672 1.679688 -1.376953 2.910156 -1.376953 c1.455078 0 2.548828 0.527344 3.076172 1.503906 c0.703125 -1.005859 1.777344 -1.503906 3.105469 -1.503906 z M134.179688 17.275391 c0 1.230469 0.117188 2.011719 0.244141 2.451172 l0 0.273438 l-2.626953 0 l-0.224609 -1.09375 c-0.751953 0.908203 -2.050781 1.289063 -3.222656 1.289063 c-1.582031 0 -3.125 -0.703125 -3.125 -2.792969 c0 -2.080078 1.552734 -2.783203 3.652344 -3.242187 l1.650391 -0.371094 c0.712891 -0.166016 0.966797 -0.410156 0.966797 -0.820312 c0 -0.986328 -0.898437 -1.259766 -1.689453 -1.259766 c-1.015625 0 -1.787109 0.400391 -1.962891 1.533203 l-2.490234 -0.449219 c0.419922 -2.080078 1.943359 -3.027344 4.609375 -3.027344 c2.011719 0 4.21875 0.595703 4.21875 3.623047 l0 3.886719 z M129.228516 18.291016 c1.337891 0 2.412109 -0.888672 2.412109 -2.880859 l-2.382812 0.673828 c-0.78125 0.185547 -1.347656 0.458984 -1.347656 1.132813 c0 0.722656 0.595703 1.074219 1.318359 1.074219 z M141.455078 20.185547 c-3.154297 0 -5.380859 -2.099609 -5.380859 -5.214844 c0 -3.125 2.226563 -5.205078 5.380859 -5.205078 c2.539063 0 4.443359 1.318359 4.931641 3.691406 l-2.597656 0.283203 c-0.3125 -1.201172 -1.181641 -1.757812 -2.363281 -1.757812 c-1.513672 0 -2.539062 1.191406 -2.539062 2.988281 c0 1.787109 1.025391 2.988281 2.539063 2.988281 c1.181641 0 2.050781 -0.566406 2.363281 -1.757812 l2.597656 0.283203 c-0.488281 2.373047 -2.441406 3.701172 -4.931641 3.701172 z M154.462891 9.765625 c2.246094 0 3.59375 1.25 3.59375 3.759766 l0 6.474609 l-2.822266 0 l0 -6.015625 c0 -1.474609 -0.820312 -1.962891 -1.826172 -1.962891 c-1.044922 0 -2.1875 0.517578 -2.207031 2.441406 l0 5.537109 l-2.8125 0 l0 -15 l2.8125 0 l0 6.162109 c0.712891 -0.869141 1.835938 -1.396484 3.261719 -1.396484 z M162.197266 8.457031 c-0.888672 0 -1.630859 -0.722656 -1.630859 -1.621094 c0 -0.888672 0.742188 -1.611328 1.630859 -1.611328 c0.869141 0 1.611328 0.722656 1.611328 1.611328 c0 0.898438 -0.742187 1.621094 -1.611328 1.621094 z M160.761719 20 l0 -10.039062 l2.832031 0 l0 10.039063 l-2.832031 0 z M172.431641 9.765625 c2.412109 0 3.740234 1.25 3.740234 3.476563 l0 6.757813 l-2.822266 0 l0 -6.152344 c0 -1.337891 -0.830078 -1.826172 -1.796875 -1.826172 c-1.162109 0 -2.216797 0.585938 -2.236328 2.441406 l0 5.537109 l-2.8125 0 l0 -10.039062 l2.8125 0 l0 1.113281 c0.703125 -0.830078 1.787109 -1.308594 3.115234 -1.308594 z M188.339844 14.833984 l-0.029297 0.673828 l-7.441406 0 c0.117188 1.669922 1.230469 2.470703 2.568359 2.470703 c1.005859 0 1.787109 -0.46875 2.167969 -1.357422 l2.578125 0.380859 c-0.664062 2.03125 -2.470703 3.193359 -4.726562 3.193359 c-3.242187 0 -5.361328 -1.914062 -5.361328 -5.214844 s2.177734 -5.234375 5.273438 -5.234375 c2.841797 0 4.960938 1.572266 4.970703 5.087891 z M183.388672 11.738281 c-1.279297 0 -2.167969 0.595703 -2.441406 1.933594 l4.609375 0 c-0.146484 -1.279297 -1.015625 -1.933594 -2.167969 -1.933594 z M199.208984 20.195313 c-2.255859 0 -4.003906 -0.888672 -4.365234 -2.792969 l2.353516 -0.664062 c0.302734 1.074219 1.064453 1.494141 2.011719 1.494141 c0.693359 0 1.445313 -0.214844 1.425781 -1.005859 c-0.009766 -1.044922 -1.591797 -1.132812 -3.183594 -1.699219 c-1.201172 -0.419922 -2.353516 -1.064453 -2.353516 -2.753906 c0 -2.060547 1.708984 -3.007812 3.935547 -3.007812 c1.953125 0 3.583984 0.742188 3.974609 2.65625 l-2.177734 0.488281 c-0.302734 -0.9375 -0.966797 -1.269531 -1.787109 -1.269531 c-0.742187 0 -1.376953 0.263672 -1.376953 0.888672 c0 0.791016 1.162109 0.947266 2.421875 1.289063 c1.552734 0.419922 3.251953 1.09375 3.251953 3.242188 c0 2.304688 -1.962891 3.134766 -4.130859 3.134766 z M211.25 9.765625 c2.646484 0 4.833984 1.943359 4.833984 5.234375 s-2.1875 5.234375 -4.833984 5.234375 c-1.308594 0 -2.480469 -0.507812 -3.076172 -1.425781 l0 6.074219 l-2.8125 0 l0 -14.921875 l2.666016 0 l0.078125 1.347656 c0.556641 -0.996094 1.777344 -1.542969 3.144531 -1.542969 z M210.615234 17.900391 c1.474609 0 2.65625 -1.074219 2.65625 -2.900391 s-1.181641 -2.900391 -2.65625 -2.900391 c-1.503906 0 -2.675781 1.142578 -2.675781 2.900391 s1.171875 2.900391 2.675781 2.900391 z M227.646485 14.833984 l-0.029297 0.673828 l-7.441406 0 c0.117188 1.669922 1.230469 2.470703 2.568359 2.470703 c1.005859 0 1.787109 -0.46875 2.167969 -1.357422 l2.578125 0.380859 c-0.664062 2.03125 -2.470703 3.193359 -4.726562 3.193359 c-3.242187 0 -5.361328 -1.914062 -5.361328 -5.214844 s2.177734 -5.234375 5.273438 -5.234375 c2.841797 0 4.960938 1.572266 4.970703 5.087891 z M222.695313 11.738281 c-1.279297 0 -2.167969 0.595703 -2.441406 1.933594 l4.609375 0 c-0.146484 -1.279297 -1.015625 -1.933594 -2.167969 -1.933594 z M239.228516 14.833984 l-0.029297 0.673828 l-7.441406 0 c0.117188 1.669922 1.230469 2.470703 2.568359 2.470703 c1.005859 0 1.787109 -0.46875 2.167969 -1.357422 l2.578125 0.380859 c-0.664062 2.03125 -2.470703 3.193359 -4.726562 3.193359 c-3.242187 0 -5.361328 -1.914062 -5.361328 -5.214844 s2.177734 -5.234375 5.273438 -5.234375 c2.841797 0 4.960938 1.572266 4.970703 5.087891 z M234.277344 11.738281 c-1.279297 0 -2.167969 0.595703 -2.441406 1.933594 l4.609375 0 c-0.146484 -1.279297 -1.015625 -1.933594 -2.167969 -1.933594 z M248.486328 5 l2.8125 0 l0 15 l-2.666016 0 l-0.068359 -1.308594 c-0.576172 0.986328 -1.787109 1.542969 -3.154297 1.542969 c-2.646484 0 -4.833984 -1.953125 -4.833984 -5.234375 s2.197266 -5.234375 4.833984 -5.234375 c1.318359 0 2.480469 0.498047 3.076172 1.40625 l0 -6.171875 z M246.054687 17.900391 c1.494141 0 2.65625 -1.142578 2.65625 -2.900391 s-1.171875 -2.910156 -2.65625 -2.910156 c-1.494141 0 -2.666016 1.103516 -2.666016 2.910156 c0 1.796875 1.171875 2.900391 2.666016 2.900391 z M255.966797 20.195313 c-0.869141 0 -1.601562 -0.722656 -1.601562 -1.601562 s0.732422 -1.621094 1.601563 -1.621094 c0.888672 0 1.621094 0.742188 1.621094 1.621094 s-0.732422 1.601563 -1.621094 1.601563 z"/></g>
			</g>
		</svg>
	